<svg id="Layer_1" data-name="Layer 1" xmlns="http://www.w3.org/2000/svg" xmlns:xlink="http://www.w3.org/1999/xlink" viewBox="0 0 167.68 295.01"><defs><style>.cls-1{fill:none;}.cls-2{isolation:isolate;}.cls-3{fill:gray;}.cls-4{fill:#a6a6a6;}.cls-5{fill:#919191;}.cls-6{fill:#ebebeb;}.cls-7{fill:#b9b9b9;}.cls-8{clip-path:url(#clip-path);}.cls-9{fill:#858585;}.cls-10{clip-path:url(#clip-path-2);}.cls-11{clip-path:url(#clip-path-3);}.cls-12{fill:#a8a8a8;}.cls-13{fill:#a3a3a3;}.cls-14{fill:#9e9e9e;}.cls-15{fill:#b3b3b3;}.cls-16{clip-path:url(#clip-path-4);}.cls-17{fill:#8a8a8a;}.cls-18{fill:#8f8f8f;}.cls-19{clip-path:url(#clip-path-5);}.cls-20{fill:#e6e6e6;}.cls-21{fill:#e0e0e0;}.cls-22{fill:#dbdbdb;}.cls-23{fill:#d6d6d6;}.cls-24{fill:#d1d1d1;}.cls-25{fill:#ccc;}.cls-26{fill:#c7c7c7;}.cls-27{fill:#c2c2c2;}.cls-28{fill:#bdbdbd;}.cls-29{fill:#b8b8b8;}.cls-30{fill:#adadad;}.cls-31{clip-path:url(#clip-path-6);}.cls-32{fill:#949494;}.cls-33{fill:#999;}.cls-34{clip-path:url(#clip-path-7);}.cls-35{clip-path:url(#clip-path-8);}.cls-36{clip-path:url(#clip-path-9);}.cls-37{fill:#dfdfdf;}</style><clipPath id="clip-path" transform="translate(-213.72 -272.48)"><path class="cls-1" d="M323.35,298.14l15.63,8.5a48.91,48.91,0,0,1,9.52,6.83,51.62,51.62,0,0,1,15.08,26.2L348,331.17A51.55,51.55,0,0,0,332.87,305,48.31,48.31,0,0,0,323.35,298.14Z"/></clipPath><clipPath id="clip-path-2" transform="translate(-213.72 -272.48)"><path class="cls-1" d="M213.75,365.37l0-2.47c0-.2,0-.4,0-.6,0-20.38,7.86-41.36,21.45-57.52a85.38,85.38,0,0,1,14.08-13.33l2.17-1.64a95.27,95.27,0,0,0-15.15,14.51c-14.27,17-22.49,39-22.53,60.43Z"/></clipPath><clipPath id="clip-path-3" transform="translate(-213.72 -272.48)"><path class="cls-1" d="M333.31,280.06l15.63,8.5c-12.14-6.6-26.31-8.91-42.38-6.86l-15.63-8.5C307,271.15,321.17,273.46,333.31,280.06Z"/></clipPath><clipPath id="clip-path-4" transform="translate(-213.72 -272.48)"><path class="cls-1" d="M369.74,336.58l-6.16,3.09a51.62,51.62,0,0,0-15.08-26.2c-11.16-10.18-24.86-14.09-41.86-11.94l3.63-1.9c19.16-2.83,31.75.73,44.3,12.69C362.36,319.42,367.91,329.06,369.74,336.58Z"/></clipPath><clipPath id="clip-path-5" transform="translate(-213.72 -272.48)"><path class="cls-1" d="M310.18,287.49l-3.62-5.79c21.91-2.8,40.27,2.51,54.79,15.74,9.74,8.89,16.67,20.92,20,34.8l-.74-.21c-2.34-9.62-9-21.08-18.22-29.53C348.6,289.88,329.85,285.39,310.18,287.49Z"/></clipPath><clipPath id="clip-path-6" transform="translate(-213.72 -272.48)"><path class="cls-1" d="M247.78,373.5c0-.82,0-1.64,0-2.45.07,7.53,2.71,14.94,5.76,23.5.85,2.39,1.74,4.87,2.59,7.45l.21,3.67c-.85-2.5-1.71-5-2.56-7.38C250.66,389.6,247.87,381.8,247.78,373.5Z"/></clipPath><clipPath id="clip-path-7" transform="translate(-213.72 -272.48)"><path class="cls-1" d="M272.57,317.17c.85-.74,1.41-1.24,2.48-2.2,9.85-8.84,20.63-13.39,35.22-15.34l-3.63,1.9A65.3,65.3,0,0,0,272.57,317.17Z"/></clipPath><clipPath id="clip-path-8" transform="translate(-213.72 -272.48)"><path class="cls-1" d="M239,411.64l-15.62-8.5c-1-2.89-1.85-5.39-2.71-7.81-3.4-9.52-6.9-19.38-6.88-30.58,0-21.42,8.26-43.45,22.53-60.43,14.58-17.32,33-27.79,54.65-31.12l15.63,8.5c-21.69,3.33-40.07,13.8-54.65,31.12-14.28,17-22.5,39-22.54,60.43,0,11.2,3.49,21.06,6.88,30.58C237.11,406.25,238,408.75,239,411.64Z"/></clipPath><clipPath id="clip-path-9" transform="translate(-213.72 -272.48)"><path class="cls-1" d="M245.81,411.58l-6.85.06c-1-2.89-1.85-5.39-2.71-7.81-3.39-9.52-6.9-19.38-6.88-30.58,0-21.42,8.26-43.45,22.54-60.43,14.58-17.32,33-27.79,54.65-31.12l3.62,5.79A87.4,87.4,0,0,0,258,317.18c-13.59,16.16-21.41,37.14-21.45,57.52,0,10.45,3.32,19.89,6.66,29.28C244.05,406.4,245,408.9,245.81,411.58Z"/></clipPath></defs><title>CILVIALOGO3d</title><g class="cls-2"><polygon class="cls-3" points="76.88 237.3 73.28 244.88 107.47 156.72 109.24 153.86 76.88 237.3"/><polygon class="cls-4" points="124.86 162.36 109.24 153.86 126.05 159.49 141.67 167.99 124.86 162.36"/><polygon class="cls-5" points="92.51 245.8 76.88 237.3 109.24 153.86 124.86 162.36 92.51 245.8"/><polygon class="cls-6" points="130.26 169.12 124.86 162.36 141.67 167.99 140.56 172.57 130.26 169.12"/><polygon class="cls-7" points="96.08 257.28 92.51 245.8 124.86 162.36 130.26 169.12 96.08 257.28"/><polygon class="cls-3" points="166.93 59.56 167.68 59.77 149.85 67.19 156.01 64.1 166.93 59.56"/><g class="cls-2"><g class="cls-8"><g class="cls-2"><path class="cls-9" d="M363.58,339.67,348,331.17A51.55,51.55,0,0,0,332.87,305a48.31,48.31,0,0,0-9.52-6.83l15.63,8.5a48.91,48.91,0,0,1,9.52,6.83,51.62,51.62,0,0,1,15.08,26.2" transform="translate(-213.72 -272.48)"/></g></g></g><g class="cls-2"><g class="cls-10"><g class="cls-2"><path class="cls-9" d="M213.75,365.4l0-2.5c0-.2,0-.4,0-.6,0-20.38,7.86-41.36,21.45-57.52A85.59,85.59,0,0,1,249.88,291l1.55-1.18a95.27,95.27,0,0,0-15.15,14.51c-14.27,17-22.49,39-22.53,60.43v.65" transform="translate(-213.72 -272.48)"/></g></g></g><polygon class="cls-3" points="92.42 295.01 76.79 286.51 9.61 130.67 25.24 139.17 92.42 295.01"/><g class="cls-2"><g class="cls-11"><g class="cls-2"><path class="cls-12" d="M306.56,281.7l-15.63-8.5a75.09,75.09,0,0,1,28.55,1.42l15.62,8.5a75,75,0,0,0-28.54-1.42" transform="translate(-213.72 -272.48)"/><path class="cls-13" d="M335.1,283.12l-15.62-8.5a60.75,60.75,0,0,1,11.64,4.3l15.62,8.5a60.75,60.75,0,0,0-11.64-4.3" transform="translate(-213.72 -272.48)"/><path class="cls-14" d="M346.74,287.42l-15.62-8.5c.73.37,1.47.75,2.19,1.14l15.63,8.5c-.73-.39-1.46-.77-2.2-1.14" transform="translate(-213.72 -272.48)"/></g></g></g><polygon class="cls-15" points="42.59 133.19 42.38 129.52 92.51 245.8 96.08 257.28 42.59 133.19"/><g class="cls-2"><g class="cls-16"><g class="cls-2"><path class="cls-17" d="M369.74,336.58l-6.16,3.09a57.62,57.62,0,0,0-2-6.42l6.48-1.67a36.79,36.79,0,0,1,1.64,5" transform="translate(-213.72 -272.48)"/><path class="cls-9" d="M368.1,331.58l-6.48,1.67a50.14,50.14,0,0,0-13.12-19.78c-11.16-10.18-24.86-14.09-41.86-11.94l3.63-1.9c19.16-2.83,31.75.73,44.3,12.69a55.17,55.17,0,0,1,13.53,19.26" transform="translate(-213.72 -272.48)"/></g></g></g><polygon class="cls-18" points="96.02 287.43 92.42 295.01 25.24 139.17 32.08 139.11 96.02 287.43"/><g class="cls-2"><g class="cls-19"><g class="cls-2"><path class="cls-20" d="M310.18,287.49l-3.62-5.79a77.52,77.52,0,0,1,25.07.62l1.94,6a78.81,78.81,0,0,0-23.39-.83" transform="translate(-213.72 -272.48)"/><path class="cls-21" d="M333.57,288.32l-1.94-6a61.63,61.63,0,0,1,9.27,2.61l1.67,5.81a64.83,64.83,0,0,0-9-2.42" transform="translate(-213.72 -272.48)"/><path class="cls-22" d="M342.57,290.74l-1.67-5.81a59.47,59.47,0,0,1,6,2.59l1.52,5.62a61.38,61.38,0,0,0-5.88-2.4" transform="translate(-213.72 -272.48)"/><path class="cls-23" d="M348.45,293.14l-1.52-5.62c1.66.82,3.29,1.73,4.88,2.71l1.42,5.45q-2.34-1.38-4.78-2.54" transform="translate(-213.72 -272.48)"/><path class="cls-24" d="M353.23,295.68l-1.42-5.45c1.5.92,3,1.92,4.4,3l1.29,5.27c-1.39-1-2.81-1.94-4.27-2.8" transform="translate(-213.72 -272.48)"/><path class="cls-25" d="M357.5,298.48l-1.29-5.27c1.45,1.07,2.86,2.22,4.24,3.43l1.14,5.09c-1.32-1.15-2.69-2.24-4.09-3.25" transform="translate(-213.72 -272.48)"/><path class="cls-26" d="M361.59,301.73l-1.14-5.09.9.8q1.63,1.5,3.16,3.1l.94,4.9c-1-1-2-2-3-2.94l-.85-.77" transform="translate(-213.72 -272.48)"/><path class="cls-27" d="M365.45,305.44l-.94-4.9q1.86,2,3.57,4.09l.76,4.65c-1.08-1.32-2.2-2.6-3.39-3.84" transform="translate(-213.72 -272.48)"/><path class="cls-28" d="M368.84,309.28l-.76-4.65c1.07,1.33,2.08,2.71,3.05,4.14l.58,4.31q-1.36-1.93-2.87-3.8" transform="translate(-213.72 -272.48)"/><path class="cls-29" d="M371.71,313.08l-.58-4.31c.93,1.36,1.8,2.77,2.64,4.21l.38,3.85c-.76-1.26-1.58-2.51-2.44-3.75" transform="translate(-213.72 -272.48)"/><path class="cls-15" d="M374.15,316.83l-.38-3.85q1.23,2.14,2.32,4.39l.18,3.23c-.65-1.26-1.36-2.52-2.12-3.77" transform="translate(-213.72 -272.48)"/><path class="cls-30" d="M376.27,320.6l-.18-3.23q1.16,2.37,2.13,4.85l-.09,2.34q-.84-2-1.86-4" transform="translate(-213.72 -272.48)"/><path class="cls-12" d="M378.13,324.56l.09-2.34c.79,2,1.51,4,2.13,6.16l-.46.89c-.49-1.54-1.08-3.12-1.76-4.71" transform="translate(-213.72 -272.48)"/><path class="cls-13" d="M379.89,329.27l.46-.89c.38,1.27.73,2.56,1,3.86l-.74-.21c-.22-.9-.48-1.83-.77-2.76" transform="translate(-213.72 -272.48)"/></g></g></g><g class="cls-2"><g class="cls-31"><g class="cls-2"><path class="cls-32" d="M247.78,373.5l0-2.49v.24l0,2.51c0-.09,0-.17,0-.26" transform="translate(-213.72 -272.48)"/><path class="cls-33" d="M247.79,373.76l0-2.51c0,1.1.09,2.19.21,3.28l0,2.81c-.13-1.18-.2-2.37-.22-3.58" transform="translate(-213.72 -272.48)"/><path class="cls-14" d="M248,377.34l0-2.81c.13,1.22.32,2.44.56,3.66l.07,3.1c-.25-1.32-.45-2.63-.59-4" transform="translate(-213.72 -272.48)"/><path class="cls-13" d="M248.6,381.29l-.07-3.1c.31,1.59.7,3.18,1.15,4.8l.13,3.39c-.47-1.71-.88-3.4-1.21-5.09" transform="translate(-213.72 -272.48)"/><path class="cls-12" d="M249.81,386.38l-.13-3.39c1,3.69,2.39,7.49,3.84,11.56.85,2.39,1.74,4.87,2.59,7.45l.21,3.67c-.85-2.5-1.71-5-2.56-7.38-1.47-4.12-2.87-8-3.95-11.91" transform="translate(-213.72 -272.48)"/></g></g></g><g class="cls-2"><g class="cls-34"><g class="cls-2"><path class="cls-9" d="M310.27,299.63l-3.63,1.9a65.3,65.3,0,0,0-34.07,15.64l1.73-1.52c10.06-9.29,21-14,36-16" transform="translate(-213.72 -272.48)"/></g></g></g><g class="cls-2"><g class="cls-35"><g class="cls-2"><path class="cls-9" d="M239,411.64l-15.62-8.5c-1-2.89-1.85-5.39-2.71-7.81-3.4-9.52-6.9-19.38-6.88-30.58a92,92,0,0,1,5.77-31.44l15.62,8.5a92,92,0,0,0-5.77,31.44c0,11.2,3.49,21.06,6.88,30.58.86,2.42,1.76,4.92,2.71,7.81" transform="translate(-213.72 -272.48)"/><path class="cls-17" d="M235.14,341.81l-15.62-8.5a97.15,97.15,0,0,1,5.68-12.63l15.63,8.5a97.21,97.21,0,0,0-5.69,12.63" transform="translate(-213.72 -272.48)"/><path class="cls-18" d="M240.83,329.18l-15.63-8.5a97.06,97.06,0,0,1,6-9.77l15.63,8.5a97.06,97.06,0,0,0-6,9.77" transform="translate(-213.72 -272.48)"/><path class="cls-32" d="M246.85,319.41l-15.63-8.5q2.39-3.39,5.06-6.59c.54-.63,1.08-1.26,1.62-1.87l15.63,8.5c-.55.61-1.09,1.24-1.62,1.87q-2.67,3.19-5.06,6.59" transform="translate(-213.72 -272.48)"/><path class="cls-33" d="M253.53,311l-15.63-8.5a97.2,97.2,0,0,1,7.81-7.9l15.63,8.5a95.6,95.6,0,0,0-7.81,7.9" transform="translate(-213.72 -272.48)"/><path class="cls-14" d="M261.34,303.05l-15.63-8.5a88.75,88.75,0,0,1,8.93-7.07l15.62,8.5a90.08,90.08,0,0,0-8.92,7.07" transform="translate(-213.72 -272.48)"/><path class="cls-13" d="M270.26,296l-15.62-8.5a84.75,84.75,0,0,1,12.06-7l15.63,8.5a84.85,84.85,0,0,0-12.07,7" transform="translate(-213.72 -272.48)"/><path class="cls-12" d="M282.33,289l-15.63-8.5a87.93,87.93,0,0,1,24.23-7.32l15.63,8.5A87.72,87.72,0,0,0,282.33,289" transform="translate(-213.72 -272.48)"/></g></g></g><g class="cls-2"><g class="cls-36"><g class="cls-2"><path class="cls-17" d="M245.81,411.58l-6.85.06-.45-1.35,6.89,0c.14.42.27.85.41,1.27" transform="translate(-213.72 -272.48)"/><path class="cls-9" d="M245.4,410.31l-6.89,0c-.79-2.33-1.53-4.43-2.26-6.46-.78-2.2-1.57-4.42-2.32-6.66l7,.29c.74,2.18,1.51,4.36,2.28,6.52s1.49,4.13,2.22,6.33" transform="translate(-213.72 -272.48)"/><path class="cls-17" d="M240.9,397.46l-7-.29a90.94,90.94,0,0,1-3.9-15.32l7.11.92a87.44,87.44,0,0,0,3.76,14.69" transform="translate(-213.72 -272.48)"/><path class="cls-18" d="M237.14,382.77l-7.11-.92a57.72,57.72,0,0,1-.64-7l7.15,1.35a53.4,53.4,0,0,0,.6,6.61" transform="translate(-213.72 -272.48)"/><path class="cls-32" d="M236.54,376.16l-7.15-1.35c0-.52,0-1,0-1.56,0-2,.08-4,.23-6l7.13,1.74c-.14,1.91-.21,3.81-.21,5.72,0,.49,0,1,0,1.46" transform="translate(-213.72 -272.48)"/><path class="cls-33" d="M236.73,369l-7.13-1.74q.27-3.81.88-7.61l7.09,2.11c-.38,2.41-.67,4.82-.84,7.24" transform="translate(-213.72 -272.48)"/><path class="cls-14" d="M237.57,361.74l-7.09-2.11c.37-2.35.84-4.69,1.39-7l7,2.44c-.53,2.22-1,4.45-1.33,6.69" transform="translate(-213.72 -272.48)"/><path class="cls-13" d="M238.9,355.05l-7-2.44q.8-3.3,1.82-6.56l6.94,2.76c-.65,2.06-1.23,4.15-1.73,6.24" transform="translate(-213.72 -272.48)"/><path class="cls-12" d="M240.63,348.81l-6.94-2.76q1-3.12,2.19-6.18l6.83,3.06q-1.14,2.91-2.08,5.88" transform="translate(-213.72 -272.48)"/><path class="cls-30" d="M242.71,342.93l-6.83-3.06q1.16-3,2.5-5.83l6.72,3.33q-1.29,2.75-2.39,5.56" transform="translate(-213.72 -272.48)"/><path class="cls-15" d="M245.1,337.37,238.38,334q1.32-2.82,2.82-5.55l6.58,3.6c-.95,1.73-1.85,3.49-2.68,5.28" transform="translate(-213.72 -272.48)"/><path class="cls-29" d="M247.78,332.09l-6.58-3.6q1.47-2.69,3.11-5.27l6.43,3.85c-1,1.64-2,3.32-3,5" transform="translate(-213.72 -272.48)"/><path class="cls-28" d="M250.74,327.07l-6.43-3.85q1.62-2.57,3.41-5l6.26,4.1q-1.69,2.34-3.24,4.78" transform="translate(-213.72 -272.48)"/><path class="cls-27" d="M254,322.29l-6.26-4.1q1.78-2.46,3.72-4.8l6.09,4.32q-1.86,2.24-3.55,4.58" transform="translate(-213.72 -272.48)"/><path class="cls-26" d="M257.53,317.71l-6.09-4.32.47-.57c1.14-1.36,2.31-2.67,3.5-3.95l5.92,4.54c-1.15,1.22-2.27,2.47-3.36,3.77l-.44.53" transform="translate(-213.72 -272.48)"/><path class="cls-25" d="M261.33,313.41l-5.92-4.54q1.95-2.08,4-4l5.8,4.74c-1.32,1.23-2.6,2.5-3.86,3.82" transform="translate(-213.72 -272.48)"/><path class="cls-24" d="M265.19,309.59l-5.8-4.74q2-1.94,4.15-3.72l5.7,4.93q-2.07,1.69-4.05,3.53" transform="translate(-213.72 -272.48)"/><path class="cls-23" d="M269.24,306.06l-5.7-4.93c1.52-1.28,3.07-2.51,4.65-3.67l5.59,5.12c-1.54,1.11-3.06,2.26-4.54,3.48" transform="translate(-213.72 -272.48)"/><path class="cls-22" d="M273.78,302.58l-5.59-5.12c1.86-1.37,3.78-2.66,5.73-3.87l5.46,5.32q-2.85,1.72-5.6,3.67" transform="translate(-213.72 -272.48)"/><path class="cls-21" d="M279.38,298.91l-5.46-5.32a83.6,83.6,0,0,1,9.38-5l5.17,5.58a88.39,88.39,0,0,0-9.09,4.76" transform="translate(-213.72 -272.48)"/><path class="cls-20" d="M288.47,294.15l-5.17-5.58a88.17,88.17,0,0,1,23.26-6.87l3.62,5.79a90,90,0,0,0-21.71,6.66" transform="translate(-213.72 -272.48)"/></g></g></g><path class="cls-37" d="M310.18,287.49c19.67-2.1,38.42,2.39,52.26,15,9.27,8.45,15.88,19.91,18.22,29.53l-10.92,4.55c-1.83-7.52-7.38-17.16-15.17-24.26-12.55-12-25.14-15.52-44.3-12.69-19.24,2.57-31.86,9.67-44.46,25.16-11.42,13.59-18,31.2-18,48.32,0,8.45,2.84,16.36,6,25.18.85,2.4,1.71,4.88,2.56,7.38L309.8,529.75,344,441.59,354.28,445,309.74,559.9,245.81,411.58c-.85-2.68-1.76-5.18-2.63-7.6-3.34-9.39-6.69-18.83-6.66-29.28,0-20.38,7.86-41.36,21.45-57.52A87.4,87.4,0,0,1,310.18,287.49Z" transform="translate(-213.72 -272.48)"/></g></svg>